#!OML:ASF F:\VICON\USERDATA\INSTALL\rory3\rory3.ASF
:FULLY-SPECIFIED
:DEGREES
395
root -6.72771 18.1524 11.2952 -194.826 87.7216 167.562
lowerback 11.9796 2.04052 -2.03688
upperback 2.57638 2.52915 -0.522396
thorax -4.07374 1.31351 0.212428
lowerneck -13.3256 1.62635 -10.4484
upperneck 44.1194 8.43941 2.60362
head 18.4241 2.87593 4.96661
rclavicle 9.31803e-015 -8.74653e-015
rhumerus -32.9297 -16.3791 -76.0217
rradius 34.2661
rwrist 7.09407
rhand -11.9518 8.44672
rfingers 7.12502
rthumb 14.1035 -21.0547
lclavicle 9.31803e-015 -8.74653e-015
lhumerus -36.721 9.5868 76.4595
lradius 35.0518
lwrist -3.80229
lhand -18.0857 27.0694
lfingers 7.12502
lthumb 8.18761 56.8908
rfemur -19.1417 -6.99117 16.3596
rtibia 55.0964
rfoot -8.69761 -2.9761
rtoes -11.8969
lfemur -4.38032 -3.44598 -26.6545
ltibia 26.0714
lfoot -3.76359 -8.03573
ltoes -0.244853
396
root -6.8432 18.1583 11.2939 -194.11 87.9523 168.269
lowerback 11.9005 2.09917 -1.85281
upperback 2.51426 2.62596 -0.565308
thorax -4.0873 1.35842 0.0511126
lowerneck -13.0006 1.41031 -10.2346
upperneck 43.8804 7.95086 2.5084
head 18.2517 2.71989 4.76745
rclavicle 2.77802e-014 -7.15625e-015
rhumerus -33.0488 -16.8531 -75.9205
rradius 34.4402
rwrist 7.14305
rhand -12.0423 8.34396
rfingers 7.12502
rthumb 14.0162 -21.1635
lclavicle 2.77802e-014 -7.15625e-015
lhumerus -36.8256 8.79613 76.6554
lradius 34.6056
lwrist -3.99906
lhand -17.9914 26.5701
lfingers 7.12502
lthumb 8.27868 56.3879
rfemur -18.328 -6.92361 16.3453
rtibia 55.7945
rfoot -8.45366 -2.50219
rtoes -11.8936
lfemur -4.82339 -3.5434 -26.5156
ltibia 25.9943
lfoot -3.48854 -7.56836
ltoes -0.326217
397
root -6.95732 18.1688 11.2936 -192.226 88.111 170.169
lowerback 11.8294 2.09437 -1.85885
upperback 2.4644 2.62329 -0.412149
thorax -4.10789 1.3565 0.215907
lowerneck -12.8155 1.21463 -10.3982
upperneck 43.769 7.62406 2.51816
head 18.1604 2.571 4.72826
rclavicle 9.24349e-015 2.38542e-015
rhumerus -33.0752 -17.015 -75.6698
rradius 34.5714
rwrist 7.1684
rhand -12.1251 8.4861
rfingers 7.12502
rthumb 13.9364 -21.0268
lclavicle 9.24349e-015 2.38542e-015
lhumerus -37.061 8.33936 77.0009
lradius 34.2809
lwrist -4.18453
lhand -17.7411 26.589
lfingers 7.12502
lthumb 8.52016 56.3971
rfemur -17.428 -6.96525 16.3608
rtibia 56.3199
rfoot -8.20971 -1.99521
rtoes -12.5239
lfemur -5.20019 -3.45541 -26.3661
ltibia 25.9589
lfoot -3.41806 -7.4828
ltoes -2.29749
398
root -7.06712 18.1785 11.294 -189.444 88.2861 172.95
lowerback 11.6779 1.8926 -1.98622
upperback 2.43133 2.3515 -0.151675
thorax -4.0697 1.22289 0.604911
lowerneck -12.9319 1.20313 -10.7313
upperneck 43.8337 7.74989 2.4529
head 18.2186 2.54532 4.78543
rclavicle 7.19352e-015 -6.4605e-015
rhumerus -32.8388 -16.4666 -75.6408
rradius 34.6361
rwrist 7.06977
rhand -12.1978 8.5353
rfingers 7.12502
rthumb 13.8664 -20.9824
lclavicle 7.19352e-015 -6.4605e-015
lhumerus -37.5556 8.81455 77.1383
lradius 34.0574
lwrist -4.64037
lhand -17.7068 26.6001
lfingers 7.12502
lthumb 8.55334 56.4068
rfemur -16.524 -6.97908 16.3904
rtibia 56.7495
rfoot -7.89728 -1.3103
rtoes -13.0477
lfemur -5.50894 -3.04156 -26.1913
ltibia 25.7619
lfoot -3.23021 -7.82915
ltoes -4.34466
399
root -7.17649 18.192 11.2994 -188.476 88.5307 173.902
lowerback 11.552 1.70483 -2.12439
upperback 2.36565 2.08861 -0.0603241
thorax -4.07004 1.09364 0.820252
lowerneck -12.8364 1.24341 -10.6532
upperneck 43.7573 7.83845 2.21291
head 18.1631 2.56021 4.66103
rclavicle -3.09359e-015 5.06901e-015
rhumerus -32.6414 -15.9204 -75.8812
rradius 34.6779
rwrist 6.88348
rhand -12.5385 8.30041
rfingers 7.12502
rthumb 13.538 -21.2395
lclavicle -3.09359e-015 5.06901e-015
lhumerus -38.0521 9.15872 76.9786
lradius 33.9112
lwrist -4.96592
lhand -17.5545 26.3772
lfingers 7.12502
lthumb 8.70027 56.1779
rfemur -15.5833 -6.92569 16.3789
rtibia 57.0475
rfoot -7.61984 -0.439241
rtoes -14.0039
lfemur -5.77214 -2.88943 -26.0534
ltibia 25.4854
lfoot -2.832 -7.79527
ltoes -3.40576
400
root -7.28766 18.2068 11.3056 -186.007 88.785 176.398
lowerback 11.4947 1.6517 -2.13919
upperback 2.29405 2.01486 -0.0379912
thorax -4.1123 1.0569 0.863357
lowerneck -12.5774 1.16931 -10.5486
upperneck 43.6829 7.65861 2.12878
head 18.0762 2.5014 4.55515
rclavicle 1.92573e-015 6.95746e-016
rhumerus -32.6953 -15.8171 -75.9766
rradius 34.804
rwrist 6.80923
rhand -12.6254 8.30494
rfingers 7.12502
rthumb 13.4543 -21.2405
lclavicle 1.92573e-015 6.95746e-016
lhumerus -38.3549 8.95242 76.9484
lradius 33.7347
lwrist -5.14569
lhand -16.9546 26.2994
lfingers 7.12502
lthumb 9.27919 56.0752
rfemur -14.5327 -6.74688 16.4173
rtibia 57.1976
rfoot -7.4649 0.384224
rtoes -14.4139
lfemur -5.99751 -2.8099 -25.8815
ltibia 25.2005
lfoot -2.42377 -7.66384
ltoes -1.50676
401
root -7.40154 18.2154 11.3128 -188.101 88.8995 174.351
lowerback 11.4753 1.64119 -2.22572
upperback 2.23344 1.98936 -0.00732269
thorax -4.16806 1.04531 0.9473
lowerneck -12.4579 1.01861 -10.6925
upperneck 43.7411 7.41413 2.22686
head 18.0917 2.3924 4.58537
rclavicle 1.3418e-014 2.48481e-015
rhumerus -32.842 -15.7889 -75.8825
rradius 35.038
rwrist 6.60936
rhand -12.3741 8.34483
rfingers 7.12502
rthumb 13.6965 -21.1845
lclavicle 1.3418e-014 2.48481e-015
lhumerus -38.5914 8.59776 77.1114
lradius 33.5754
lwrist -5.42202
lhand -16.8323 26.4333
lfingers 7.12502
lthumb 9.39717 56.2038
rfemur -13.4398 -6.70819 16.32
rtibia 57.2381
rfoot -7.17407 1.32388
rtoes -14.2237
lfemur -6.24704 -2.60616 -25.829
ltibia 24.9237
lfoot -2.05437 -7.79733
ltoes -0.543097
402
root -7.51888 18.2181 11.3199 -189.323 89.0016 173.082
lowerback 11.4118 1.55345 -2.29892
upperback 2.14894 1.86257 0.0154455
thorax -4.22005 0.983302 1.03167
lowerneck -12.4349 0.9292 -10.8676
upperneck 43.8084 7.24299 2.40756
head 18.1227 2.31298 4.67546
rclavicle 6.92019e-015 -1.68967e-015
rhumerus -32.823 -15.7543 -75.9159
rradius 35.1371
rwrist 6.45443
rhand -12.3558 8.31758
rfingers 7.12502
rthumb 13.7141 -21.2105
lclavicle 6.92019e-015 -1.68967e-015
lhumerus -38.8308 8.51511 77.1475
lradius 33.3902
lwrist -5.70942
lhand -16.9378 26.3834
lfingers 7.12502
lthumb 9.29537 56.1585
rfemur -12.4695 -6.69561 16.2609
rtibia 57.1783
rfoot -6.65869 2.51453
rtoes -14.8272
lfemur -6.60051 -2.48733 -25.8026
ltibia 24.6629
lfoot -1.88803 -7.83112
ltoes -1.73814
403
root -7.63623 18.222 11.3226 -185.917 89.1463 176.367
lowerback 11.2653 1.4347 -2.20696
upperback 2.05537 1.71311 -0.0219466
thorax -4.2278 0.907157 0.965677
lowerneck -12.3506 0.854542 -10.7662
upperneck 43.7892 7.05034 2.41414
head 18.1085 2.24969 4.62276
rclavicle 2.29596e-014 -9.74045e-015
rhumerus -32.7369 -15.8219 -76.1114
rradius 35.1334
rwrist 6.36781
rhand -12.7306 8.22639
rfingers 7.12502
rthumb 13.3529 -21.3257
lclavicle 2.29596e-014 -9.74045e-015
lhumerus -39.0396 8.58481 76.9914
lradius 33.2117
lwrist -6.03593
lhand -16.644 26.2963
lfingers 7.12502
lthumb 9.57888 56.0586
rfemur -11.5559 -6.54305 16.3101
rtibia 57
rfoot -6.20777 3.68189
rtoes -15.2149
lfemur -7.04749 -2.24472 -25.7038
ltibia 24.4421
lfoot -1.8063 -7.90095
ltoes -3.63149
404
root -7.75341 18.2298 11.3271 -184.626 89.3255 177.547
lowerback 11.1041 1.43492 -2.24728
upperback 1.9916 1.71026 0.00844672
thorax -4.20734 0.905415 1.02339
lowerneck -12.2541 0.704491 -10.688
upperneck 43.7738 6.77291 2.3798
head 18.1063 2.14524 4.54256
rclavicle 2.9855e-014 -4.47266e-015
rhumerus -32.7018 -15.8999 -76.1004
rradius 35.199
rwrist 6.20343
rhand -13.0846 8.11995
rfingers 7.12502
rthumb 13.0116 -21.4543
lclavicle 2.9855e-014 -4.47266e-015
lhumerus -39.1838 8.736 76.9586
lradius 33.085
lwrist -6.49689
lhand -16.6683 26.5099
lfingers 7.12502
lthumb 9.55539 56.2732
rfemur -10.6047 -6.3667 16.3502
rtibia 56.6677
rfoot -5.67147 4.81047
rtoes -16.0744
lfemur -7.50391 -2.08235 -25.6126
ltibia 24.2695
lfoot -1.44806 -7.86855
ltoes -2.3991
405
root -7.87209 18.2324 11.3349 -171.513 89.4857 190.61
lowerback 10.9947 1.50042 -2.25066
upperback 1.95136 1.8015 0.111456
thorax -4.19564 0.950369 1.12124
lowerneck -12.0827 0.516567 -10.7506
upperneck 43.7485 6.4142 2.48374
head 18.071 2.00887 4.53487
rclavicle -1.19147e-014 2.08724e-015
rhumerus -32.754 -16.1185 -75.9307
rradius 35.3169
rwrist 6.17466
rhand -13.2649 8.0949
rfingers 7.12502
rthumb 12.8379 -21.4903
lclavicle -1.19147e-014 2.08724e-015
lhumerus -39.2522 8.86041 77.0097
lradius 32.9724
lwrist -7.0015
lhand -17.4793 26.8552
lfingers 7.12502
lthumb 8.77288 56.6529
rfemur -9.5744 -6.05768 16.5586
rtibia 56.1822
rfoot -4.92745 5.99993
rtoes -16.2897
lfemur -7.91568 -1.77576 -25.3999
ltibia 24.1111
lfoot -1.1407 -7.95698
ltoes -1.35992
406
root -7.99232 18.2336 11.3419 -144.983 89.5273 217.1
lowerback 10.9269 1.55265 -2.04305
upperback 1.9133 1.89605 0.148228
thorax -4.19619 0.994066 1.03009
lowerneck -11.9557 0.273347 -11.0195
upperneck 43.7365 5.96637 2.75772
head 18.0497 1.82246 4.63169
rclavicle 2.59414e-014 -4.96962e-016
rhumerus -32.8017 -16.3657 -75.8796
rradius 35.4252
rwrist 5.98252
rhand -13.3572 8.04267
rfingers 7.12502
rthumb 12.7488 -21.5481
lclavicle 2.59414e-014 -4.96962e-016
lhumerus -39.2848 8.77926 77.051
lradius 32.9473
lwrist -7.21657
lhand -18.0843 27.1081
lfingers 7.12502
lthumb 8.18893 56.9294
rfemur -8.50985 -5.62692 16.8991
rtibia 55.5542
rfoot -4.0162 7.121
rtoes -16.2916
lfemur -8.34427 -1.53419 -25.1349
ltibia 23.9982
lfoot -0.794411 -7.92639
ltoes -0.267277
407
root -8.11183 18.2402 11.3497 -116.418 89.5245 245.639
lowerback 10.8578 1.59994 -1.84505
upperback 1.90416 1.98318 0.169997
thorax -4.16471 1.03409 0.930479
lowerneck -12.0473 0.0308798 -11.4825
upperneck 43.8955 5.59814 3.14628
head 18.1784 1.63765 4.8537
rclavicle 5.14355e-015 -2.98177e-016
rhumerus -32.7536 -16.6129 -75.8526
rradius 35.445
rwrist 5.80384
rhand -13.414 8.12128
rfingers 7.12502
rthumb 12.6941 -21.4729
lclavicle 5.14355e-015 -2.98177e-016
lhumerus -39.2764 8.73214 77.1282
lradius 32.9456
lwrist -7.106
lhand -18.0314 27.2749
lfingers 7.12502
lthumb 8.24 57.0942
rfemur -7.43219 -5.20951 17.2006
rtibia 54.8173
rfoot -3.16213 8.23035
rtoes -16.7223
lfemur -8.76628 -1.51788 -24.9267
ltibia 23.9504
lfoot -0.409962 -7.66776
ltoes 0.958484
408
root -8.23474 18.2416 11.3573 -97.0364 89.4115 264.95
lowerback 10.7723 1.62586 -1.64448
upperback 1.87272 2.041 0.182311
thorax -4.1457 1.0595 0.824094
lowerneck -11.9795 -0.139401 -11.5675
upperneck 43.8678 5.29533 3.22891
head 18.1713 1.51194 4.85371
rclavicle -4.61429e-014 5.56597e-015
rhumerus -32.7249 -17.1749 -75.7512
rradius 35.3556
rwrist 6.19936
rhand -13.2472 8.4539
rfingers 7.12502
rthumb 12.8549 -21.1302
lclavicle -4.61429e-014 5.56597e-015
lhumerus -39.2709 8.54648 77.1644
lradius 33.0161
lwrist -6.82772
lhand -17.6791 27.3589
lfingers 7.12502
lthumb 8.58001 57.1646
rfemur -6.40723 -4.88431 17.5147
rtibia 53.9841
rfoot -2.30069 9.36876
rtoes -17.2563
lfemur -9.28515 -1.32404 -24.7079
ltibia 23.9416
lfoot -0.165951 -7.70615
ltoes 0.980573
409
root -8.36271 18.2353 11.3633 -91.8531 89.2894 270.038
lowerback 10.6986 1.57976 -1.48184
upperback 1.8488 1.99853 0.187532
thorax -4.1234 1.03588 0.745882
lowerneck -11.8869 -0.248411 -11.4124
upperneck 43.7302 5.06874 3.10907
head 18.0971 1.43228 4.71716
rclavicle -1.25607e-014 6.55989e-015
rhumerus -32.6189 -17.2004 -75.8439
rradius 35.3322
rwrist 6.19169
rhand -13.1515 8.49358
rfingers 7.12502
rthumb 12.9472 -21.0847
lclavicle -1.25607e-014 6.55989e-015
lhumerus -39.2691 8.71075 77.0314
lradius 33.0716
lwrist -6.92132
lhand -18.0988 27.0839
lfingers 7.12502
lthumb 8.17495 56.9057
rfemur -5.40118 -4.63431 17.812
rtibia 53.043
rfoot -1.27434 10.5877
rtoes -16.9446
lfemur -9.87097 -0.985252 -24.5245
ltibia 23.9684
lfoot 0.0251818 -7.93258
ltoes 0.597302
